<svg width="80" height="80" viewBox="0 0 80 80" fill="none" xmlns="http://www.w3.org/2000/svg">
<path d="M40 30C37.5277 30 35.111 29.2669 33.0554 27.8934C30.9998 26.5199 29.3976 24.5676 28.4515 22.2835C27.5054 19.9995 27.2579 17.4861 27.7402 15.0614C28.2225 12.6366 29.413 10.4093 31.1612 8.66117C32.9093 6.91301 35.1366 5.7225 37.5614 5.24019C39.9861 4.75787 42.4995 5.00542 44.7835 5.95151C47.0676 6.89761 49.0199 8.49976 50.3934 10.5554C51.7669 12.611 52.5 15.0277 52.5 17.5C52.5 19.1415 52.1767 20.767 51.5485 22.2835C50.9203 23.8001 49.9996 25.1781 48.8388 26.3388C47.6781 27.4996 46.3001 28.4203 44.7835 29.0485C43.267 29.6767 41.6415 30 40 30ZM40 56.7C41.6187 53.3364 43.9701 50.378 46.8815 48.0419C49.793 45.7059 53.1906 44.0514 56.825 43.2H56.95C55.984 39.4385 53.7942 36.1051 50.7255 33.7249C47.6569 31.3447 43.8836 30.0529 40 30.0529C36.1164 30.0529 32.3431 31.3447 29.2745 33.7249C26.2058 36.1051 24.016 39.4385 23.05 43.2C26.7071 44.0345 30.1295 45.6812 33.0637 48.0181C35.9978 50.3551 38.3685 53.3223 40 56.7ZM66.425 55C64.3759 54.9994 62.3293 55.1415 60.3 55.425C49.625 56.875 41.45 62 40.3 68.325C40.1446 68.872 40.0441 69.4331 40 70C40.0037 69.4039 39.9451 68.809 39.825 68.225C38.55 61.9 30.375 56.775 19.825 55.325C17.752 55.069 15.6634 54.9604 13.575 55H5V75H75V55H66.425ZM42.7 56.925C41.8528 58.5079 41.1982 60.1865 40.75 61.925C44.525 57.475 51.4 54.175 59.95 53.025C62.0936 52.7008 64.2571 52.5254 66.425 52.5H70V45H62.65C60.8816 45.0031 59.1197 45.2129 57.4 45.625C54.2991 46.3839 51.3905 47.7807 48.8595 49.7263C46.3285 51.6719 44.2307 54.1236 42.7 56.925ZM20 52.95C28.55 54.1 35.425 57.4 39.225 61.85C38.3532 58.6488 36.7976 55.6746 34.6656 53.1325C32.5335 50.5904 29.8756 48.5408 26.875 47.125C25.4736 46.4722 24.0071 45.9694 22.5 45.625C20.8129 45.2206 19.0849 45.0108 17.35 45H10V52.5H13.575C15.7245 52.5008 17.8714 52.6512 20 52.95Z" fill="#09538f"/>
</svg>
